<svg xmlns="http://www.w3.org/2000/svg" width="16" height="14"><g fill="#FFF" fill-rule="evenodd"><path stroke="#FFF" stroke-width=".1" d="M4.526 3.74c.168 1.37.324 2.708.5 4.044.08.611.339.82.977.822 2.353.005 4.705.005 7.058 0 .694 0 .927-.206 1.014-.885.078-.599.143-1.2.21-1.8.08-.718.155-1.436.235-2.18H4.526zM2.959 1.286H1V.096h3.097L4.38 2.49h11.545c-.093.826-.177 1.591-.265 2.356-.126 1.088-.232 2.18-.389 3.263-.15 1.028-.856 1.679-1.906 1.69-2.546.03-5.092.03-7.638 0-1.084-.013-1.823-.772-1.958-1.883-.26-2.144-.513-4.288-.77-6.432-.005-.047-.017-.092-.039-.198z"/><path d="M7.19 12.305c-.01.664-.58 1.2-1.257 1.184a1.226 1.226 0 01-1.213-1.23 1.246 1.246 0 011.235-1.217 1.236 1.236 0 011.234 1.263m7.489-.02c-.012.658-.58 1.206-1.25 1.204-.664-.002-1.236-.564-1.237-1.216 0-.674.594-1.248 1.275-1.23.666.017 1.223.588 1.212 1.242"/></g></svg>