<svg xmlns="http://www.w3.org/2000/svg" width="24" height="24"><g fill="none" fill-rule="evenodd"><circle cx="12" cy="12" r="12" fill="#BFCDD3"/><g fill="#FFF"><path stroke="#FFF" stroke-width=".56" d="M15.307 11.308c0-2.126-1.755-3.831-3.902-3.831-2.165 0-3.901 1.723-3.901 3.831 0 2.127 1.755 3.832 3.901 3.832 2.147.018 3.902-1.705 3.902-3.832zM18.2 17.67l-.336.33-3.547-3.483a4.44 4.44 0 01-2.93 1.1C8.96 15.617 7 13.692 7 11.308 7 8.925 8.96 7 11.387 7c2.426 0 4.386 1.925 4.386 4.308 0 1.1-.429 2.109-1.12 2.879L18.2 17.67z"/><path fill-rule="nonzero" d="M14 11.493c0 .101-.016.207-.048.317-.031.11-.075.165-.13.165H11.97v1.846c0 .055-.054.099-.163.13a1.151 1.151 0 01-.327.049c-.091 0-.193-.016-.307-.048-.114-.032-.17-.076-.17-.131v-1.846H9.177c-.054 0-.098-.055-.13-.165A1.142 1.142 0 019 11.493c0-.1.016-.209.048-.324.031-.114.075-.172.13-.172h1.825V9.165c0-.046.054-.085.163-.117A1.12 1.12 0 0111.48 9c.109 0 .218.014.327.041.109.028.163.07.163.124v1.832h1.853c.054 0 .098.06.13.18.031.119.047.224.047.316z"/></g></g></svg>