<svg xmlns="http://www.w3.org/2000/svg" width="24" height="24"><g fill="none" fill-rule="evenodd"><circle cx="12" cy="12" r="12" fill="#BFCDD3"/><g fill="#FFF"><path stroke="#FFF" stroke-width=".1" d="M9.82 9.939c.135 1.077.26 2.128.4 3.177.065.48.272.645.782.646 1.883.004 3.765.004 5.647 0 .555 0 .741-.162.811-.696.062-.47.114-.942.168-1.413.064-.565.124-1.13.188-1.714H9.821zM8.569 8.01H7v-.936h2.478l.225 1.881h9.236c-.074.65-.141 1.25-.212 1.851-.1.856-.185 1.713-.311 2.565-.12.807-.685 1.319-1.525 1.328-2.036.022-4.074.023-6.11 0-.867-.011-1.459-.607-1.566-1.48-.208-1.685-.41-3.37-.616-5.054-.004-.037-.014-.073-.031-.155z"/><path d="M11.951 16.668c-.008.522-.462.943-1.005.93-.545-.012-.976-.44-.97-.966.006-.521.456-.957.988-.956a.98.98 0 01.987.992m5.991-.016c-.01.518-.463.948-.999.947-.532-.002-.99-.444-.99-.956 0-.53.475-.98 1.02-.966.533.013.978.462.97.975"/><path fill-rule="nonzero" d="M7 11.994a.932.932 0 01-.038.254c-.026.088-.06.132-.104.132H5.376v1.477c0 .044-.044.079-.13.104a.92.92 0 01-.262.039.91.91 0 01-.246-.039c-.09-.025-.136-.06-.136-.104V12.38h-1.46c-.044 0-.078-.044-.104-.132A.914.914 0 013 11.994c0-.08.013-.167.038-.258.026-.092.06-.138.104-.138h1.46v-1.466c0-.036.044-.068.131-.093a.886.886 0 01.25-.039c.088 0 .175.011.262.033.087.022.131.055.131.1v1.465h1.482c.044 0 .078.048.104.143a1 1 0 01.038.253z"/></g></g></svg>