<svg xmlns="http://www.w3.org/2000/svg" width="24" height="24" viewBox="0 0 24 24">
    <g fill="none" fill-rule="evenodd">
        <circle cx="12" cy="12" r="12" fill="#BFCDD3"/>
        <path fill="#FFF" fill-rule="nonzero" d="M17.095 8.9a3.1 3.1 0 0 0-4.367 0L12 9.624l-.728-.724a3.1 3.1 0 0 0-4.367 0 3.06 3.06 0 0 0 0 4.344l.728.724L12 18.313l4.367-4.345.728-.724a3.06 3.06 0 0 0 0-4.344zm-2.183 5.068L12 16.865l-2.911-2.897-1.456-1.448a2.04 2.04 0 0 1 0-2.896c.804-.8 2.107-.8 2.911 0L12 11.072l1.456-1.448c.804-.8 2.108-.8 2.911 0a2.04 2.04 0 0 1 0 2.896l-1.455 1.448z"/>
    </g>
</svg>
