<svg xmlns="http://www.w3.org/2000/svg" width="114" height="30" viewBox="0 0 114 30">
    <g fill="none" fill-rule="nonzero">
        <g fill="#FFF">
            <path d="M36.937 19.02h.662l1.263 3 1.324-3h.661l.783 4.71h-.933l-.421-2.91-1.263 2.91h-.301l-1.203-2.91-.482 2.91h-.932zM48.488 19.8h-1.715v1.05h1.624v.78h-1.624v1.29h1.715v.78H45.87v-4.68h2.617zM53.992 19.02c.27 0 .782 0 1.143.3.27.21.451.57.451.96 0 .6-.39.84-.541.93.3.06.481.18.601.3.271.27.331.63.331.87 0 .27-.09.66-.39.96-.362.3-.783.39-1.204.39H52.79v-4.71h1.203zm-.24 1.95h.27c.15 0 .722 0 .722-.6 0-.42-.33-.6-.722-.6h-.27v1.2zm0 2.01h.39c.181 0 .422 0 .632-.12.24-.12.3-.36.3-.54 0-.15-.06-.39-.36-.54-.21-.09-.421-.09-.632-.09h-.33v1.29zM62.926 19.8H61.21v1.05h1.624v.78h-1.624v1.29h1.715v.78h-2.617v-4.68h2.617zM68.16 19.02v3.93h1.443v.78h-2.376v-4.71z"/>
            <g>
                <path d="M39.795 9.48h3.7c0 1.41-.301 2.43-1.144 3.21-.752.69-1.594.9-2.526.9-1.294 0-2.166-.48-2.737-1.05-.542-.54-1.023-1.41-1.023-2.58 0-1.14.451-2.07 1.083-2.67.601-.6 1.504-1.05 2.767-1.05.662 0 1.384.15 1.925.48.572.33 1.023.9 1.263 1.47l-1.774.72a1.71 1.71 0 0 0-.512-.72c-.3-.27-.631-.36-.992-.36-.451 0-.903.15-1.233.48-.422.42-.632 1.08-.632 1.65 0 .66.24 1.2.571 1.53.331.36.752.54 1.294.54.33 0 .692-.06 1.022-.33.181-.15.361-.39.452-.78h-1.534V9.48h.03zM49.54 12.33h-2.617l-.48 1.2h-1.956l2.737-7.14h2.016l2.677 7.14H49.93l-.39-1.2zm-.511-1.41l-.812-2.31-.782 2.31h1.594zM56.579 6.39c.541 0 1.233.09 1.744.63.422.42.602 1.05.602 1.59 0 .6-.21 1.14-.571 1.5-.271.27-.662.42-.993.48l2.226 2.91H57.27l-1.775-2.73v2.73h-1.865V6.39h2.948zm-1.023 3.18h.361c.27 0 .662-.06.903-.3.15-.15.24-.36.24-.6a.89.89 0 0 0-.24-.6c-.181-.18-.482-.27-.903-.27h-.36v1.77zM61.331 13.5V6.39h2.437c.722 0 1.925.09 2.827.99.842.81.993 1.83.993 2.61 0 .93-.24 1.77-.933 2.46-.571.57-1.534 1.08-2.737 1.08l-2.587-.03zm1.835-1.56h.361c.451 0 1.083-.03 1.564-.51.24-.21.542-.66.542-1.47 0-.66-.21-1.23-.572-1.56-.451-.42-1.022-.45-1.474-.45h-.42v3.99zM73.634 12.33h-2.587l-.481 1.2H68.61l2.737-7.14h2.015l2.677 7.14h-1.985l-.421-1.2zm-.481-1.41l-.813-2.31-.782 2.31h1.595zM77.995 11.37c.391.36.993.72 1.655.72.36 0 .601-.12.722-.24a.61.61 0 0 0 .18-.45c0-.15-.06-.3-.21-.42-.181-.15-.452-.24-.933-.36l-.481-.15c-.301-.09-.752-.27-1.023-.57-.36-.39-.421-.9-.421-1.26 0-.87.33-1.41.662-1.71.36-.36.962-.66 1.834-.66.722 0 1.535.21 2.196.57l-.752 1.44c-.571-.45-.962-.48-1.233-.48-.18 0-.421.03-.602.21-.12.12-.18.21-.18.39 0 .12.03.21.09.33.06.06.18.18.632.33l.571.18c.452.15.933.3 1.294.72.36.39.451.78.451 1.26 0 .66-.15 1.29-.662 1.8-.601.6-1.353.72-2.105.72-.452 0-.873-.03-1.414-.24-.12-.03-.572-.21-1.083-.57l.812-1.56zM86.417 9.06h2.677V6.39h1.865v7.11h-1.865v-2.88h-2.677v2.88h-1.864V6.39h1.864zM95.23 6.39v5.55h2.226v1.56h-4.09V6.39zM103.683 12.33h-2.587l-.481 1.2H98.66l2.737-7.14h2.015l2.677 7.14h-1.985l-.421-1.2zm-.481-1.41l-.813-2.31-.782 2.31h1.595zM110.751 6.39c.542 0 1.234.09 1.745.63.421.42.602 1.05.602 1.59 0 .6-.21 1.14-.572 1.5-.27.27-.662.42-.992.48l2.225 2.91h-2.316l-1.774-2.73v2.73h-1.865V6.39h2.947zM109.7 9.57h.36c.271 0 .662-.06.903-.3.15-.15.24-.36.24-.6a.89.89 0 0 0-.24-.6c-.18-.18-.481-.27-.902-.27h-.361v1.77z"/>
            </g>
        </g>
        <path fill="#94CC00" d="M29.417 14.46H17.566V22.83c-.842.27-1.714.42-2.617.42-4.572 0-8.302-3.72-8.302-8.28 0-4.56 3.73-8.28 8.302-8.28 2.978 0 5.776 1.62 7.22 4.23l.27.45.451-.27.602-.36 4.632-2.85-.24-.42A14.996 14.996 0 0 0 14.978.09C6.708.06 0 6.75 0 14.97s6.708 14.91 14.95 14.91c8.241 0 14.949-6.69 14.949-14.91v-.51h-.482zm-2.406 1.02C26.741 21.87 21.446 27 14.95 27 8.302 27 2.888 21.6 2.888 14.97c0-6.63 5.414-12.03 12.061-12.03 4.121 0 7.971 2.13 10.197 5.58l-.752.45C22.35 5.76 18.77 3.81 14.95 3.81c-6.166 0-11.19 5.01-11.19 11.16s5.024 11.16 11.19 11.16c5.986 0 10.92-4.74 11.16-10.65h.902zm-8.452 0h.872v6.42c-.27.18-.571.36-.872.51v-6.93zm1.895 0h.902v4.77c-.27.33-.571.63-.872.9l-.03-5.67zm1.895 0h.872a8.126 8.126 0 0 1-.872 3.24v-3.24zm-7.4-9.78c-5.113 0-9.294 4.17-9.294 9.27s4.18 9.27 9.294 9.27c.903 0 1.775-.12 2.617-.36v.03l.692-.27.33-.12a9.085 9.085 0 0 0 1.685-.9 8.97 8.97 0 0 0 1.986-1.86l.12-.15a9.09 9.09 0 0 0 1.895-5.13h.872c-.27 5.37-4.722 9.66-10.167 9.66-5.624 0-10.166-4.56-10.166-10.14 0-5.58 4.572-10.14 10.166-10.14 3.49 0 6.708 1.8 8.573 4.71l-.511.3-.241.15a9.278 9.278 0 0 0-7.85-4.32zm0 23.19C7.25 28.89.993 22.65.993 14.97S7.249 1.05 14.949 1.05c4.783 0 9.235 2.46 11.791 6.48l-.752.45A13.098 13.098 0 0 0 14.95 1.92C7.73 1.92 1.895 7.77 1.895 14.94S7.76 27.96 14.949 27.96c7.039 0 12.784-5.58 13.055-12.54h.872c-.24 7.5-6.407 13.47-13.927 13.47z"/>
    </g>
</svg>
